<?xml version="1.0" encoding="utf-8"?>
<!-- Generator: Adobe Illustrator 24.0.1, SVG Export Plug-In . SVG Version: 6.00 Build 0)  -->
<svg version="1.1" id="Calque_1" xmlns="http://www.w3.org/2000/svg" xmlns:xlink="http://www.w3.org/1999/xlink" x="0px" y="0px"
	 width="108px" height="30px" viewBox="0 0 108 30" style="enable-background:new 0 0 108 30;" xml:space="preserve">
<style type="text/css">
	.st0{fill:#FFFFFF;}
	.st1{fill:url(#Path_2_);}
	.st2{fill:#E1001A;}
	.st3{fill:#A70000;}
	.st4{fill-rule:evenodd;clip-rule:evenodd;fill:#EEBB05;}
	.st5{fill:url(#Shape_4_);}
</style>
<title>Logo/EUML2020/EUMLMYMI/2 - Fond noir</title>
<desc>Created with Sketch.</desc>
<g id="Logo_x2F_EUML2020_x2F_EUMLMYMI_x2F_2---Fond-noir">
	<g id="FDJ" transform="translate(0.000000, 7.000000)">
		<path id="Path" class="st0" d="M8.9,22L1,13.9c-1.2-1.3-1.2-3.3,0-4.5l7.9-8.1c1.2-1.3,3.2-1.3,4.4,0l7.9,8.1
			c1.2,1.3,1.2,3.3,0,4.5L13.3,22C12.1,23.3,10.1,23.3,8.9,22z"/>
		
			<linearGradient id="Path_2_" gradientUnits="userSpaceOnUse" x1="-184.4305" y1="247.3238" x2="-185.4368" y2="247.3238" gradientTransform="matrix(20.3394 0 0 -20.9374 3772.1282 5189.9336)">
			<stop  offset="0" style="stop-color:#00A0E1"/>
			<stop  offset="1.000000e-02" style="stop-color:#009EDF"/>
			<stop  offset="0.16" style="stop-color:#0381C6"/>
			<stop  offset="0.33" style="stop-color:#0064AE"/>
			<stop  offset="0.5" style="stop-color:#004E9B"/>
			<stop  offset="0.71" style="stop-color:#004694"/>
			<stop  offset="1" style="stop-color:#004492"/>
		</linearGradient>
		<path id="Path_1_" class="st1" d="M1.6,9.9l7.9-8.1c0.4-0.4,1-0.7,1.6-0.7s1.2,0.3,1.6,0.7l0,0l7.9,8.1c0.4,0.4,0.7,1,0.7,1.7
			c0,0.6-0.2,1.2-0.7,1.7l0,0l-7.9,8.1c-0.4,0.4-1,0.7-1.6,0.7c-0.6,0-1.2-0.3-1.6-0.7l0,0l-7.9-8.1C0.7,12.4,0.7,10.9,1.6,9.9
			L1.6,9.9z"/>
		<path id="Shape" class="st0" d="M17.5,9.2c0-0.1,0-2.3-1.5-2.5c-1-0.1-1.9,0.6-2.6,1.4l3,1.5L15,12.7c1.1,0.2,2.2,0.2,2.9-0.6
			C19,11,17.6,9.3,17.5,9.2z M11.6,12.3c-0.6,0.3-2.7,4.4-1,6c1.1,1.1,2.7-0.3,2.9-0.4s2.3,0,2.5-1.6C16.3,14,12.2,12.1,11.6,12.3z
			 M11.1,10.8c0.6-0.3,2.7-4.4,1-6c-1.1-1.1-2.7,0.3-2.9,0.4C9,5.2,6.9,5.1,6.7,6.7C6.3,9.1,10.4,11,11.1,10.8z M10.6,11.8
			c-0.3-0.6-4.3-2.7-5.9-1c-1.1,1.1,0.3,2.8,0.4,3c0.1,0.1,0,2.3,1.5,2.5C8.9,16.6,10.7,12.4,10.6,11.8L10.6,11.8z M7.1,18.1
			l0.8,0.8c0.8-0.8,1.3-1.9,1.5-3c-0.1,0-0.4-0.1-0.5-0.1C8.6,16.7,8,17.5,7.1,18.1L7.1,18.1z"/>
		<polygon id="Rectangle" class="st2" points="11.9,11.3 13.2,8.4 16,9.8 14.7,12.6 		"/>
		<polygon id="Rectangle_1_" class="st3" points="13,8.7 13.2,8.4 16,9.8 15.9,10.1 		"/>
		<polygon id="Rectangle_2_" class="st3" points="11.9,11.3 13.2,8.4 13.5,8.5 12.2,11.4 		"/>
	</g>
	<path id="Shape_1_" class="st0" d="M28.1,19.1h3v-1.8h-3v-1.3h3.6v-1.9H26v8.2h6v-1.9h-3.9V19.1z M37.3,19c0,0.9-0.4,1.5-1.3,1.5
		c-0.9,0-1.3-0.6-1.3-1.5v-4.8h-2.1v5c0,1.8,1.1,3.4,3.4,3.4c2.5,0,3.4-1.8,3.4-3.4v-5h-2.1L37.3,19z M46.8,16.9
		c0-1.5-0.9-2.7-2.8-2.7h-3.6v8.2h2.1v-2.8h1.2l1.3,2.8h2.3l-1.7-3.1C46.3,18.8,46.8,18,46.8,16.9z M43.8,17.9h-1.4v-2h1.3
		c0.6,0,1,0.3,1,1c0,0.3-0.1,0.5-0.3,0.7S44,17.9,43.8,17.9L43.8,17.9z M51.5,14c-2.5,0-4.1,1.9-4.1,4.3c0,2.3,1.5,4.3,4.1,4.3
		c2.6,0,4.1-2.1,4.1-4.3C55.6,16,53.9,14,51.5,14L51.5,14z M51.5,20.5c-1.1,0-2-0.9-2-2.3c0-1.4,0.8-2.3,2-2.3
		c1.3,0,1.9,1.1,1.9,2.3C53.4,19.7,52.6,20.5,51.5,20.5L51.5,20.5z M88.8,14c-2.5,0-4.1,1.9-4.1,4.3c0,2.3,1.5,4.3,4.1,4.3
		c2.6,0,4.1-2.1,4.1-4.3C92.9,16,91.2,14,88.8,14L88.8,14z M88.8,20.5c-1.1,0-2-0.9-2-2.3c0-1.4,0.8-2.3,2-2.3c1.3,0,2,1.1,2,2.3
		C90.7,19.7,89.9,20.5,88.8,20.5L88.8,20.5z M62.4,14.2l-1.9,3.6l-1.9-3.6h-2l-0.4,8.2h2l0.2-4.8l1.5,2.8h1.2l1.4-2.8l0.2,4.8h2.1
		l-0.4-8.2H62.4z M65.7,22.4h2.1v-8.2h-2.1V22.4z M71,14.2h-2.1v8.2h5.6v-1.9H71V14.2z M77.4,14.2h-2.1v8.2h5.6v-1.9h-3.5V14.2z
		 M81.7,22.4h2.1v-8.2h-2.1V22.4z M98.6,18.8l-3-4.5h-1.9v8.2h2.1v-4.7l3.2,4.7h1.8v-8.2h-2.1V18.8z M103.9,16.2
		c0-0.3,0.2-0.5,0.7-0.5c0.6,0,1.4,0.4,1.9,0.7l1.1-1.5c-0.8-0.6-1.9-1-2.9-1c-2.2,0-3.1,1.3-3.1,2.5c0,2.5,3.8,2.5,3.8,3.6
		c0,0.4-0.5,0.6-0.9,0.6c-0.8,0-1.5-0.4-2-0.9l-1.2,1.6c0.7,0.7,1.8,1.2,3.3,1.2c1.8,0,3.2-1.3,3.2-2.7
		C107.8,17.2,103.9,17.4,103.9,16.2L103.9,16.2z"/>
	<path id="Shape_2_" class="st4" d="M86.8,23.3l3.9,2.9v-2.6h1.7v6l-3.9-2.9v2.6h-1.7V23.3z M82.9,23.4c1.9,0,3.3,1.3,3.3,3.1
		s-1.3,3.1-3.3,3.1c-1.9,0-3.3-1.3-3.3-3.1S81,23.4,82.9,23.4z M47,23.3v6h-1.7v-2.3l-1.4,1.3l-1.4-1.3v2.3h-1.7v-6l3,2.8L47,23.3z
		 M49.3,23.6l1.2,1.9l1.2-1.9h1.9l-2.3,3.6v2.2h-1.7v-2.2l-2.3-3.5H49.3z M62.4,23.3v6h-1.7v-2.3l-1.4,1.3L58,27.1v2.3h-1.7v-6
		l3,2.8L62.4,23.3z M65.3,23.6v5.8h-1.7v-5.8H65.3z M68.3,23.6v4.3h2.8v1.4h-4.5v-5.8H68.3z M73.6,23.6v4.3h2.8v1.4h-4.5v-5.8H73.6z
		 M78.9,23.6v5.8h-1.7v-5.8H78.9z M82.9,25c-0.9,0-1.5,0.6-1.5,1.5c0,0.8,0.6,1.4,1.4,1.5l0.1,0c0.9,0,1.5-0.6,1.5-1.5
		S83.8,25,82.9,25z"/>
	
		<linearGradient id="Shape_4_" gradientUnits="userSpaceOnUse" x1="-188.4318" y1="249.4347" x2="-187.4318" y2="249.4347" gradientTransform="matrix(29.6886 0 0 -14.5655 5633.0713 3640.4338)">
		<stop  offset="0" style="stop-color:#E0AF00"/>
		<stop  offset="1" style="stop-color:#FFE267"/>
	</linearGradient>
	<path id="Shape_3_" class="st5" d="M59,0.1l3.4,2.9c0.2,0.1,0.4,0.2,0.7,0.1l4.2-1.3c0.2-0.1,0.3,0,0.2,0.2l-1.6,4.2
		c-0.1,0.2,0,0.5,0.1,0.7l2.5,3.7c0.1,0.2,0,0.3-0.2,0.3l-4.4-0.3c-0.2,0-0.5,0.1-0.6,0.3l-2.6,3.6c-0.1,0.2-0.3,0.1-0.3-0.1
		L59.2,10c-0.1-0.2-0.2-0.4-0.5-0.5l-4.1-1.4c-0.2-0.1-0.2-0.2,0-0.3l3.7-2.4c0.2-0.1,0.3-0.4,0.3-0.6l0-4.5C58.7,0,58.8-0.1,59,0.1
		z M51.1,8.7l0.8,0.7c0,0,0.1,0,0.1,0l0.9-0.3c0,0,0.1,0,0.1,0.1l-0.4,1c0,0.1,0,0.1,0,0.2l0.6,0.8c0,0,0,0.1,0,0.1l-1-0.1
		c-0.1,0-0.1,0-0.1,0.1l-0.6,0.8c0,0-0.1,0-0.1,0l-0.2-1c0-0.1-0.1-0.1-0.1-0.1l-0.9-0.3c0,0,0-0.1,0-0.1l0.8-0.6
		c0,0,0.1-0.1,0.1-0.1L51.1,8.7C51,8.7,51,8.7,51.1,8.7z M43.1,7.6l0.8,0.7c0,0,0.1,0,0.2,0L45,8c0,0,0.1,0,0.1,0.1l-0.4,1
		c0,0.1,0,0.1,0,0.2l0.6,0.9c0,0,0,0.1,0,0.1l-1-0.1c-0.1,0-0.1,0-0.1,0.1L43.5,11c0,0-0.1,0-0.1,0l-0.3-1c0-0.1-0.1-0.1-0.1-0.1
		l-1-0.3c0,0-0.1-0.1,0-0.1L43,8.8c0,0,0.1-0.1,0.1-0.1L43.1,7.6C43.1,7.6,43.1,7.5,43.1,7.6z M47.4,6.4l0.5,0.5c0,0,0.1,0,0.1,0
		l0.6-0.2c0,0,0,0,0,0l-0.2,0.7c0,0,0,0.1,0,0.1L48.8,8c0,0,0,0.1,0,0L48.1,8c0,0-0.1,0-0.1,0l-0.4,0.6c0,0,0,0,0,0L47.4,8
		c0,0,0-0.1-0.1-0.1l-0.6-0.2c0,0,0,0,0-0.1l0.6-0.4c0,0,0-0.1,0.1-0.1L47.4,6.4C47.3,6.3,47.3,6.3,47.4,6.4z M39.4,5.9l0.5,0.4
		c0,0,0.1,0,0.1,0l0.6-0.2c0,0,0,0,0,0l-0.2,0.6c0,0,0,0.1,0,0.1l0.4,0.5c0,0,0,0,0,0l-0.6,0c0,0-0.1,0-0.1,0L39.7,8c0,0,0,0,0,0
		l-0.2-0.6c0,0,0-0.1-0.1-0.1l-0.6-0.2c0,0,0,0,0,0l0.5-0.4c0,0,0-0.1,0-0.1L39.4,5.9C39.4,5.9,39.4,5.9,39.4,5.9z M50.1,0.8L51.4,2
		C51.5,2,51.6,2,51.7,2l1.6-0.5c0.1,0,0.1,0,0.1,0.1l-0.6,1.7c0,0.1,0,0.2,0,0.3l1,1.5c0,0.1,0,0.1-0.1,0.1L52,5
		c-0.1,0-0.2,0-0.2,0.1l-1,1.4c0,0.1-0.1,0.1-0.1,0l-0.4-1.7c0-0.1-0.1-0.2-0.2-0.2L48.4,4c-0.1,0-0.1-0.1,0-0.1l1.4-1
		C49.9,2.9,50,2.8,50,2.7l0-1.8C50,0.8,50,0.8,50.1,0.8z"/>
</g>
</svg>
