<svg viewBox="0 0 791 234.5" xml:space="preserve" xmlns="http://www.w3.org/2000/svg"><style>.st0{fill:#fff}.st1{fill:#004494}.st2{fill:#e2001a}.st5{fill:#a70000}</style><path class="st0" d="M714.8 66.4c-20 0-38.3 8.1-51.5 21.3-15.4-27.5-44.7-46.2-78.4-46.2-22.8 0-43.6 8.6-59.5 22.6-18-31.7-52.2-53.1-91.2-53.1-45.5 0-84.1 29-98.8 69.4-12.8-9.3-28.4-14.9-45.3-14.9-42.6 0-77.4 34.6-77.4 77.4s34.6 77.4 77.4 77.4c27.2 0 51.1-14.1 65-35.5 19.3 22.2 47.7 36.2 79.2 36.2s59.8-14 79.1-36.1c16.3 21.7 42.4 35.7 71.6 35.7 29.6 0 55.9-14.5 72.2-36.6 13.4 17.2 34.2 28.3 57.6 28.3 40.3 0 73.1-32.8 73.1-73.1s-32.8-72.8-73.1-72.8z"/><path class="st1" d="M361.969 142.9c0 39.7-32.2 71.9-71.9 71.9s-71.9-32.2-71.9-71.9 32.2-71.9 71.9-71.9 71.9 32.3 71.9 71.9z"/><path class="st2" d="M782.469 139.4c0 37.4-30.2 67.6-67.6 67.6s-67.6-30.2-67.6-67.6 30.2-67.6 67.6-67.6c37.2 0 67.6 30.2 67.6 67.6zM533.768 116.2c0 55-44.6 99.6-99.6 99.6s-99.5-44.6-99.5-99.6 44.6-99.6 99.5-99.6c55-.1 99.6 44.5 99.6 99.6z"/><path class="st1" d="M669.168 131.1c0 46.4-37.7 84.1-84.1 84.1s-84.2-37.7-84.2-84.1 37.7-84.1 84.2-84.1c46.4 0 84.1 37.7 84.1 84.1z"/><path class="st0" d="M321.769 160.6c-26.8 10.9-36.7 10.7-40.8 3.4-7.5-13.3-13.5-45.5-15.5-68.2-7.1 2.2-20.2 9-27.8 13.2 2.1 35.5 9.3 64.7 18.9 77.5 7.1 9.6 16.8 13.6 28.4 13.6 16.6 0 45.1-13.6 45.1-13.6l-8.3-25.9zM426.069 32.5c-38.6 0-72.1 31.3-74.9 69.9-2.7 38.6 26.3 69.9 65 69.9s72.1-31.3 74.9-69.9-26.4-69.9-65-69.9zm-12.2 100.1c-18.6 0-32.6-15-31.2-33.5 1.4-18.6 17.4-33.5 36-33.5s32.6 15 31.2 33.5c-1.3 18.4-17.4 33.5-36 33.5zM643.669 88.4c-33.2-13.6-60.9-19.2-96.8-18.9-4.9 10.4-9.8 28.5-9.8 28.5 11.2-.1 22.4.6 33.4 1.8-4.9 19.9-8.8 40-11.8 60.5-2.1 14.7 5 26.5 19.7 29.4 4.5.9 9 1.7 13.5 2.6 8-27.8 14-56.1 18.1-84.8 10.7 2.9 21.3 6.4 31.7 10.7-.2 0 2.6-14.1 2-29.8zM716.469 100.8c-23.9 7-37.6 32.1-30.7 55.9 7 23.9 31.9 37.6 55.9 30.7 23.9-7 37.6-32.1 30.7-55.9-7-23.9-32.1-37.6-55.9-30.7zm23.2 65.1c-11.5 3.3-23.6-3.2-26.9-14.7s3.2-23.6 14.7-26.9 23.6 3.2 26.9 14.7c3.5 11.4-3.1 23.5-14.7 26.9z"/><g><path class="st0" d="m74.8 209.33-64.4-64.4c-9.9-9.9-9.9-26.2 0-36.1l64.4-64.4c9.9-9.9 26.2-9.9 36.1 0l64.4 64.4c9.9 9.9 9.9 26.2 0 36.1l-64.3 64.4c-10 9.9-26.2 9.9-36.2 0z"/><g transform="translate(.71 9.384)"><linearGradient id="a" x1="2591.8" x2="2583.1" y1="213.38" y2="213.38" gradientTransform="matrix(19.264 0 0 19.265 -49755 -3993.5)" gradientUnits="userSpaceOnUse"><stop stop-color="#00A0E1" offset="0"/><stop stop-color="#009EDF" offset=".01"/><stop stop-color="#0381C6" offset=".16"/><stop stop-color="#0064AE" offset=".33"/><stop stop-color="#004E9B" offset=".501"/><stop stop-color="#004694" offset=".71"/><stop stop-color="#004492" offset="1"/></linearGradient><path d="m14.4 104.1 64.4-64.4c7.4-7.4 19.3-7.4 26.7 0l64.4 64.4c7.4 7.4 7.4 19.3 0 26.7l-64.2 64.4c-7.4 7.4-19.3 7.4-26.7 0l-64.4-64.4c-7.6-7.4-7.6-19.4-.2-26.7z" style="fill:url(#a)"/><path class="st0" d="M144.6 98.1c-.4-1.1-.1-18.6-12.5-20.2-8.1-1.1-15.5 4.4-21.1 11.4l24.9 11.9-11.9 25c9 2 18.3 1.6 23.9-4.5 8.4-9.4-2.9-22.5-3.3-23.6zm-48.7 24.4c-5.2 2.3-21.7 34.8-7.7 48 9.1 8.6 22.5-2.6 23.5-3.1 1.1-.4 18.6.1 20.3-12.4 2.7-19-30.6-33.8-36.1-32.5zm-4.1-11.7c5.2-2.3 21.7-34.8 7.7-48-9.1-8.6-22.5 2.6-23.6 3.1-1.1.4-18.6-.1-20.3 12.4-2.6 18.9 30.8 33.9 36.2 32.5zm-4.1 7.8c-2.3-5.2-34.8-21.7-48-7.7-8.6 9.1 2.6 22.5 3.1 23.5.4 1.1-.1 18.6 12.4 20.3 19 2.6 33.9-30.7 32.5-36.1zm-28.3 50 6.6 6.6c4.4-4.5 9.9-12.4 12.3-24.2-.5-.1-3.6-.5-3.9-.6-3.3 9.2-9.9 14.9-15 18.2z"/><path style="fill:#e1001a" d="m98.2 114.5 11-22.9 23 11-11 22.9z"/><path class="st5" d="m108 94.3 1.2-2.7 23 11-1.3 2.7z"/><path class="st5" d="m98.3 114.6 11-23 2.8 1.3-11 23z"/></g></g></svg>